<svg aria-hidden="true" style="position:absolute;width:0;height:0;overflow:hidden" xmlns="http://www.w3.org/2000/svg"><defs><symbol id="icon-search" viewBox="0 0 32 32"><path stroke-linejoin="round" stroke-linecap="round" stroke-width="2.667" d="M14.667 25.333c5.891 0 10.667-4.776 10.667-10.667S20.558 3.999 14.667 3.999 4 8.775 4 14.666s4.776 10.667 10.667 10.667zM28 28l-5.8-5.8"/></symbol><symbol viewBox="0 0 28 28" id="instagram"><g opacity=".8"><path d="M25.128 9.411a8.096 8.096 0 0 0-.521-2.752 5.73 5.73 0 0 0-3.276-3.27 8.229 8.229 0 0 0-2.719-.52c-1.196-.054-1.576-.07-4.613-.07-3.038 0-3.427 0-4.615.07a8.22 8.22 0 0 0-2.718.52 5.726 5.726 0 0 0-3.275 3.27 8.127 8.127 0 0 0-.521 2.714c-.054 1.196-.07 1.574-.07 4.607 0 3.032 0 3.42.07 4.607.018.929.194 1.846.52 2.716a5.729 5.729 0 0 0 3.277 3.268 8.2 8.2 0 0 0 2.718.56c1.198.053 1.578.069 4.615.069 3.038 0 3.427 0 4.615-.07a8.21 8.21 0 0 0 2.719-.52 5.736 5.736 0 0 0 3.275-3.27c.327-.87.503-1.785.521-2.716.054-1.194.07-1.573.07-4.607-.002-3.032-.002-3.417-.072-4.606zM13.99 19.715a5.745 5.745 0 0 1-5.75-5.741 5.744 5.744 0 0 1 5.75-5.741c3.175 0 5.75 2.57 5.75 5.74a5.746 5.746 0 0 1-5.75 5.742zm5.98-10.356a1.338 1.338 0 1 1 0-2.677 1.339 1.339 0 1 1 0 2.677z"/><path d="M13.993 17.48a3.504 3.504 0 1 0 0-7.008 3.504 3.504 0 0 0 0 7.007z"/></g></symbol><symbol viewBox="0 0 28 28" id="youtube"><path fill-rule="evenodd" clip-rule="evenodd" d="M21.21 5.25c-1.19-.07-3.64-.14-7.35-.14h-.49c-3.57 0-5.95.07-7.14.21-1.61.14-2.73.56-3.36 1.12-.56.49-.98 1.4-1.12 2.59-.07.77-.14 2.38-.14 4.83v.35c0 2.31.07 3.92.21 4.69.21 1.12.56 1.96 1.26 2.45.7.56 1.89.91 3.57 1.05 1.19.07 3.64.14 7.35.14h.49c3.57 0 5.95-.07 7.14-.21 1.61-.14 2.73-.56 3.36-1.12.56-.49.98-1.4 1.12-2.59.07-.77.14-2.38.14-4.83v-.35c0-2.31-.07-3.92-.21-4.69-.21-1.12-.56-1.96-1.26-2.45-.7-.56-1.89-.91-3.57-1.05zm-2.73 8.61-7.7 4.62V9.24l7.7 4.62z" opacity=".8"/></symbol><symbol viewBox="0 0 28 28" id="facebook"><path d="M17.08 4.06h.84v3.15h-1.05c-.42 0-.84 0-1.05.21-.21.21-.21.42-.21.91v1.12h2.31v2.66h-2.31v11.55h-3.57V12.04h-1.89V9.38h1.89v-.91c0-1.54.21-2.66.63-3.15.63-.91 1.89-1.33 3.78-1.33.21.07.42.07.63.07z" opacity=".8"/></symbol><symbol id="logo" viewBox="0 0 132 24"><path d="M4.98 13.28 0 5h2.98l3.34 5.74h.04L9.7 5h2.98L7.7 13.28V19H4.98v-5.72zm7.69 3.42V7.3l2.3-2.3h7.2l2.3 2.3v9.4l-2.3 2.3h-7.2l-2.3-2.3zm8.06-.02 1.02-1.02V8.34l-1.02-1.02h-4.32l-1.02 1.02v7.32l1.02 1.02h4.32zm5.644-.08V5h2.72v10.66l1.02 1.02h3.92l1.02-1.02V5h2.72v11.6l-2.4 2.4h-6.6l-2.4-2.4zm24.504-2.24V19h-2.72v-4.02l-1.2-1.34h-4.36V19h-2.72V5h8.78l2.14 2.16v4.24l-1.36 1.38 1.44 1.58zm-8.28-2.96h4.82l.7-.7V7.98l-.7-.7h-4.82v4.12zM57.823 5h10.12v2.3h-7.4v3.54h6.82v2.26h-6.82v3.6h7.4V19h-10.12V5zm11.629 0h2.44l6.24 9.5h.04V5h2.62v14h-2.44l-6.24-9.48h-.04V19h-2.62V5zm13.446 0h10.12v2.3h-7.4v3.54h6.82v2.26h-6.82v3.6h7.4V19h-10.12V5zm22.629 9.36V19h-2.72v-4.02l-1.2-1.34h-4.36V19h-2.72V5h8.78l2.14 2.16v4.24l-1.36 1.38 1.44 1.58zm-8.28-2.96h4.82l.7-.7V7.98l-.7-.7h-4.82v4.12zm10.076 5.3V7.3l2.3-2.3h6.96l2.26 2.26V9.4h-2.72V8.26l-.94-.94h-4.12l-1.02 1.02v7.32l1.02 1.02h4.16l.98-.98v-2.18h-3V11.2h5.64v5.5l-2.3 2.3h-6.92l-2.3-2.3zm16.505-3.42L118.848 5h2.98l3.34 5.74h.04l3.34-5.74h2.98l-4.98 8.28V19h-2.72v-5.72z"/></symbol><svg viewBox="0 0 38 38" id="icon-sun"><path fill-rule="evenodd" clip-rule="evenodd" d="m17 16.175.433.447-5.326-15.328 6.102 14.357.244.574.021-.623L19 0l.526 15.601.021.624.244-.574 6.102-14.357-5.121 14.739-.205.588.433-.446L31.855 5.001 21.778 16.887l-.402.475 14.705-6.74-13.672 7.426-.546.297.62-.036L38 17.395l-16.036 2.044 15.389 4.968-15.086-3.761-.602-.15.482.392 12.08 9.823-12.714-8.98-.508-.359.309.541 7.731 13.543-8.625-12.987-.345-.518L22.506 38 19 22.153 15.494 38l2.337-15.433.094-.616-.345.518-8.625 12.987 7.73-13.543.31-.54-.508.358-12.714 8.98 12.08-9.823.482-.392-.602.15L.647 24.407l14.798-4.777.591-.191L0 17.395l16.137.95-.546-.296L1.92 10.62l14.706 6.74-10.48-12.36L17 16.175zm1.109.678-.77.48-.547.726-.248.876.083.906.404.815.67.614.846.328h.906l.846-.328.67-.614.404-.815.083-.906-.248-.876-.546-.727-.77-.479-.892-.167-.891.167z" fill="#242424"/></svg></defs></svg>